<?xml version="1.0" encoding="utf-8"?>
<!-- Generator: Adobe Illustrator 19.0.0, SVG Export Plug-In . SVG Version: 6.00 Build 0)  -->
<svg version="1.1" id="Layer_1" xmlns="http://www.w3.org/2000/svg" xmlns:xlink="http://www.w3.org/1999/xlink" x="0px" y="0px"
	 viewBox="0 0 229.6 127.6" style="enable-background:new 0 0 229.6 127.6;" xml:space="preserve">
<path d="M148.3,49.9c10.1,2.3,16.3,0.3,20.1-6.3c3.7-6.5,2.8-14.1-2.2-19.4c-4.6-4.7-11.4-5.7-17.5-2.5c-7.2,3.8-9.7,10.6-7.5,20.9
	c-1.2,0.6-2.4,1.3-3.6,1.9c-2.9-1.7-3.2-11.7-0.9-17.3c3.9-9.2,14.2-14.3,23.8-11.8c10.7,2.8,16.6,11.9,15.1,23.1
	c-1.4,11-10,17.4-23.5,17.6c-2.5,3.3-1.8,5.4,1.8,7.8c21.4,14.9,42.7,30.1,64,45.3c3.3,2.4,6.5,5.3,8.9,8.6c1.6,2.1,1.7,5.3,2.5,8
	c-2.6,0.6-5.2,1.8-7.8,1.7c-2.7-0.1-5.5-1.2-8.2-2.1c-53-16.6-106-33.1-159-49.7c-2.7-0.8-5.4-1.8-7.8-3.3c-1.4-0.9-3.1-3.2-2.9-4.5
	c0.3-1.7,2.2-4.1,3.7-4.4c7.3-1.5,14.7-3.2,22.1-3.3c22.8-0.5,45.6-0.6,68.4-0.3c5.3,0.1,8.5-0.8,9.1-6.5
	C147.2,52.3,147.8,51.2,148.3,49.9z M49.7,67.2c0,0.7,0,1.4,0,2.1c57.9,18.1,115.8,36.2,173.7,54.2c0.3-0.6,0.6-1.1,0.9-1.7
	c-3.2-3-6.2-6.4-9.7-9c-21.9-15.7-44-31.2-66.1-46.6c-1.3-0.9-3.1-1.4-4.6-1.4c-25,0-50-0.1-74.9,0.2C62.4,65,56,66.4,49.7,67.2z
	 M186.3,49.3c0,6.9,0,13,0,21c-2.3-1.7-4.7-2.6-4.7-3.6c-0.2-16.8-0.2-33.6-0.2-50.7c1.8,0,3.2,0,4.8,0c0.1,1.8,0.2,3.4,0.4,6
	c5.4-5.8,11.7-8.7,18.6-6.8c4.4,1.2,8.9,3.9,12.1,7.2c7.1,7.4,6.3,19.7-0.8,27.3C208.8,57.9,198.6,57.9,186.3,49.3z M186.2,35.6
	c0,9,6.4,15.4,15.3,15.4c8.6,0,15.2-6.9,15.2-15.6c0-9.1-6.7-15.8-15.7-15.7C192.4,19.8,186.2,26.6,186.2,35.6z M35.5,21.2
	c0.2-2,0.3-3.5,0.4-5.1c2.4-0.4,4.9-1.5,4.9,2.5c0,11.8,0,23.6,0,35.5c-4.3,1.6-5.8,0.1-4.8-5.3c-5.7,4.8-10.9,7.5-17.4,7
	c-6.5-0.5-11.3-3.5-15-8.7C-2.1,39-0.9,27.4,6.4,20.3C14.2,12.8,23.7,13,35.5,21.2z M20.5,51c8.9,0.1,15.4-6.3,15.6-15.3
	c0.2-9.1-6.5-16.1-15.4-16.1c-8.6,0-15.4,6.9-15.5,15.6C5.2,44,11.9,51,20.5,51z M110.9,55.9c-11.8,0-20.5-8.7-20.5-20.4
	c0-11.7,8.8-20.7,20.4-20.7c11.5,0,20.5,9,20.6,20.6C131.4,46.9,122.5,55.8,110.9,55.9z M110.4,51c8.7,0.2,15.5-6.4,15.7-15.3
	c0.2-8.5-6.7-15.9-15.1-16c-8.1-0.1-15.1,6.8-15.5,15.2C95.2,43.6,101.8,50.8,110.4,51z M50.8,54.9c1.7-0.2,3.1-0.4,4.4-0.5
	c0-18.1,0-35.6,0-53.4c-1.5,0-2.8,0-4.4,0C50.8,19.1,50.8,36.9,50.8,54.9z M70,54.5c0-18.1,0-35.9,0-53.9c-1.8,0.2-3.1,0.4-4.5,0.6
	c0,17.9,0,35.4,0,53.6C67.3,54.7,68.7,54.6,70,54.5z M80.5,54.8c1.8-0.1,3.2-0.2,4.6-0.3c0-13.1,0-25.8,0-38.6c-1.6,0-2.9,0-4.6,0
	C80.5,29.1,80.5,41.8,80.5,54.8z M82.6,0c-1.5,0.2-2.7,2.5-4.1,3.8c1.4,1.3,2.7,3.5,4.2,3.7c1.4,0.2,3-1.9,5.9-3.8
	C85.7,1.8,84-0.2,82.6,0z"/>
<path d="M148.6,49.9c10.1,2.3,16.3,0.3,20.1-6.3c3.7-6.5,2.8-14.1-2.2-19.4c-4.6-4.7-11.4-5.7-17.5-2.5c-7.2,3.8-9.7,10.6-7.5,20.9
	c-1.2,0.6-2.4,1.3-3.6,1.9c-2.9-1.7-3.2-11.7-0.9-17.3c3.9-9.2,14.2-14.3,23.8-11.8c10.7,2.8,16.6,11.9,15.1,23.1
	c-1.4,11-10,17.4-23.5,17.6c-2.5,3.3-1.8,5.4,1.8,7.8c21.4,14.9,42.7,30.1,64,45.3c3.3,2.4,6.5,5.3,8.9,8.6c1.6,2.1,1.7,5.3,2.5,8
	c-2.6,0.6-5.2,1.8-7.8,1.7c-2.7-0.1-5.5-1.2-8.2-2.1c-53-16.6-106-33.1-159-49.7c-2.7-0.8-5.4-1.8-7.8-3.3c-1.4-0.9-3.1-3.2-2.9-4.5
	c0.3-1.7,2.2-4.1,3.7-4.4c7.3-1.5,14.7-3.2,22.1-3.3c22.8-0.5,45.6-0.6,68.4-0.3c5.3,0.1,8.5-0.8,9.1-6.5
	C147.5,52.3,148.1,51.2,148.6,49.9z M50,67.2c0,0.7,0,1.4,0,2.1c57.9,18.1,115.8,36.2,173.7,54.2c0.3-0.6,0.6-1.1,0.9-1.7
	c-3.2-3-6.2-6.4-9.7-9c-21.9-15.7-44-31.2-66.1-46.6c-1.3-0.9-3.1-1.4-4.6-1.4c-25,0-50-0.1-74.9,0.2C62.8,65,56.4,66.4,50,67.2z
	 M186.7,49.3c0,6.9,0,13,0,21c-2.3-1.7-4.7-2.6-4.7-3.6c-0.2-16.8-0.2-33.6-0.2-50.7c1.8,0,3.2,0,4.8,0c0.1,1.8,0.2,3.4,0.4,6
	c5.4-5.8,11.7-8.7,18.6-6.8c4.4,1.2,8.9,3.9,12.1,7.2c7.1,7.4,6.3,19.7-0.8,27.3C209.2,57.9,198.9,57.9,186.7,49.3z M186.5,35.6
	c0,9,6.4,15.4,15.3,15.4c8.6,0,15.2-6.9,15.2-15.6c0-9.1-6.7-15.8-15.7-15.7C192.8,19.8,186.5,26.6,186.5,35.6z M35.9,21.2
	c0.2-2,0.3-3.5,0.4-5.1c2.4-0.4,4.9-1.5,4.9,2.5c0,11.8,0,23.6,0,35.5c-4.3,1.6-5.8,0.1-4.8-5.3c-5.7,4.8-10.9,7.5-17.4,7
	c-6.5-0.5-11.3-3.5-15-8.7C-1.8,39-0.5,27.4,6.8,20.3C14.6,12.8,24.1,13,35.9,21.2z M20.9,51c8.9,0.1,15.4-6.3,15.6-15.3
	c0.2-9.1-6.5-16.1-15.4-16.1c-8.6,0-15.4,6.9-15.5,15.6C5.6,44,12.3,51,20.9,51z M111.2,55.9c-11.8,0-20.5-8.7-20.5-20.4
	c0-11.7,8.8-20.7,20.4-20.7c11.5,0,20.5,9,20.6,20.6C131.8,46.9,122.9,55.8,111.2,55.9z M110.7,51c8.7,0.2,15.5-6.4,15.7-15.3
	c0.2-8.5-6.7-15.9-15.1-16c-8.1-0.1-15.1,6.8-15.5,15.2C95.5,43.6,102.1,50.8,110.7,51z M51.2,54.9c1.7-0.2,3.1-0.4,4.4-0.5
	c0-18.1,0-35.6,0-53.4c-1.5,0-2.8,0-4.4,0C51.2,19.1,51.2,36.9,51.2,54.9z M70.4,54.5c0-18.1,0-35.9,0-53.9
	c-1.8,0.2-3.1,0.4-4.5,0.6c0,17.9,0,35.4,0,53.6C67.7,54.7,69.1,54.6,70.4,54.5z M80.8,54.8c1.8-0.1,3.2-0.2,4.6-0.3
	c0-13.1,0-25.8,0-38.6c-1.6,0-2.9,0-4.6,0C80.8,29.1,80.8,41.8,80.8,54.8z M83,0c-1.5,0.2-2.7,2.5-4.1,3.8c1.4,1.3,2.7,3.5,4.2,3.7
	c1.4,0.2,3-1.9,5.9-3.8C86.1,1.8,84.4-0.2,83,0z"/>
</svg>
